# xmcd
#
# Track frame offsets:
# 150
# 14149
# 28869
# 41506
# 59323
# 74962
# 89109
# 100785
# 114843
# 128441
# 144777
# 159674
# 175988
# 189333
# 203997
# 215917
# 230887
# 246004
# 260357
# 277285
# 294380
# 310110
#
# Disc length: 4362 seconds
#
#
# Revision: 4
# Processed by: cddbd v1.5.2PL0 Copyright (c) Steve Scherf et al.
# Submitted via: FreeRIP 2.945 
#
DISCID=55110816
DTITLE=Clássicos Sertanejo  (Vol. 01)  - VÁRIOS - Clássicos Sertanejo  (Vol. 01)
DYEAR=2005
DGENRE=Sertanejo
TTITLE0=Belmonte and Amaraí  - Saudae de Minha Terra
TTITLE1=Zé Carreiro and Carrerinho - Peito Sadio
TTITLE2=Tibagi and Miltinho  - Pé de Cedro
TTITLE3=Biá and Dino Franco  - A Sementinha
TTITLE4=Liu and Léo  - Ipê e o Prisioneiro
TTITLE5=Valdery and Mizael  - O Carro e a Felicidade
TTITLE6=Biá and Dino Franco  - Baldrana Macia
TTITLE7=Nenete and Dorinho - Goiano Valente
TTITLE8=Tião Carreiro and Pardinho  - Encanto da Natureza
TTITLE9=Moreno and Moreninho  - João Boiadeiro
TTITLE10=Liu and Léo - Boiadeiro Errante
TTITLE11=Pedro Bento and Zé da Estrada - Mágoa de Boiadeiro
TTITLE12=Nenete and Dorinho - Recordação
TTITLE13=Dino Franco and Morai - Caboclo na Cidade
TTITLE14=Tibagi and Miltinho - Passarinho do Peito Amarelo
TTITLE15=Duo Glacial  - Poeira
TTITLE16=Luizinho and Limeira - O Menino da Porteira
TTITLE17=Zé Carreiro and Carrerinho - Canoeiro
TTITLE18=Palmeira and Sabiá - Couro de Boi
TTITLE19=Sérgio Reis - Filho Adotivo
TTITLE20=Juno and Júlio  - Filho Prodígio
TTITLE21=Léo Canhoto and Robertinho - O Último Julgamento
EXTD=Clássicos Sertanejo  (Vol. 01)  - VÁRIOS\n\nESPECIAL
EXTT0=
EXTT1=
EXTT2=
EXTT3=
EXTT4=
EXTT5=
EXTT6=
EXTT7=
EXTT8=
EXTT9=
EXTT10=
EXTT11=
EXTT12=
EXTT13=
EXTT14=
EXTT15=
EXTT16=
EXTT17=
EXTT18=
EXTT19=
EXTT20=
EXTT21=
PLAYORDER=
